<?xml version="1.0" encoding="UTF-8" standalone="no"?>
<!-- Created with Inkscape (http://www.inkscape.org/) -->

<svg
   xmlns:dc="http://purl.org/dc/elements/1.1/"
   xmlns:cc="http://creativecommons.org/ns#"
   xmlns:rdf="http://www.w3.org/1999/02/22-rdf-syntax-ns#"
   xmlns:svg="http://www.w3.org/2000/svg"
   xmlns="http://www.w3.org/2000/svg"
   xmlns:sodipodi="http://sodipodi.sourceforge.net/DTD/sodipodi-0.dtd"
   xmlns:inkscape="http://www.inkscape.org/namespaces/inkscape"
   width="210mm"
   height="297mm"
   viewBox="0 0 210 297"
   version="1.1"
   id="svg8"
   inkscape:version="0.92.3 (3ce5693, 2018-03-11)"
   sodipodi:docname="assign.svg">
  <defs
     id="defs2" />
  <sodipodi:namedview
     id="base"
     pagecolor="#ffffff"
     bordercolor="#666666"
     borderopacity="1.0"
     inkscape:pageopacity="0.0"
     inkscape:pageshadow="2"
     inkscape:zoom="0.49497475"
     inkscape:cx="415.81613"
     inkscape:cy="795.88384"
     inkscape:document-units="mm"
     inkscape:current-layer="layer1"
     showgrid="false"
     inkscape:window-width="1920"
     inkscape:window-height="1056"
     inkscape:window-x="1920"
     inkscape:window-y="24"
     inkscape:window-maximized="1" />
  <metadata
     id="metadata5">
    <rdf:RDF>
      <cc:Work
         rdf:about="">
        <dc:format>image/svg+xml</dc:format>
        <dc:type
           rdf:resource="http://purl.org/dc/dcmitype/StillImage" />
        <dc:title></dc:title>
      </cc:Work>
    </rdf:RDF>
  </metadata>
  <g
     inkscape:label="Layer 1"
     inkscape:groupmode="layer"
     id="layer1">
    <path
       style="fill:#020202;stroke-width:0.14138965"
       d="m 152.70309,244.70345 c -12.61483,-1.12591 -23.75707,-6.36207 -32.5254,-15.28492 -4.12531,-4.19803 -7.15883,-8.533 -9.80904,-14.01735 -2.69322,-5.57336 -4.24095,-10.90343 -4.9907,-17.18693 -0.34268,-2.87192 -0.34268,-8.96641 0,-11.83832 0.75865,-6.35813 2.30829,-11.65886 5.06621,-17.32958 2.64665,-5.44192 5.62562,-9.68465 9.75589,-13.89458 4.08779,-4.16663 8.30469,-7.23253 13.65156,-9.92543 5.57247,-2.80651 10.7814,-4.38348 17.02941,-5.1555 2.82218,-0.34871 8.81109,-0.34871 11.63326,0 6.17468,0.76297 11.41244,2.33799 16.88927,5.07868 5.40323,2.70385 9.64764,5.78228 13.80392,10.01182 7.62385,7.75822 12.7031,17.79574 14.42415,28.50462 0.51633,3.21284 0.63867,4.86554 0.63867,8.62912 0,3.7636 -0.12229,5.4163 -0.63867,8.62913 -2.90629,18.08399 -15.16932,33.50955 -32.01239,40.26805 -4.17723,1.67618 -8.3444,2.73533 -13.03486,3.31303 -2.17988,0.26848 -7.82492,0.38168 -9.88128,0.19816 z m -1.392,-30.17166 c 1.98772,-0.59413 1.34533,0.009 17.81107,-16.73523 9.41688,-9.57645 15.56193,-15.93199 15.86905,-16.41269 2.71609,-4.25101 0.61459,-9.85451 -4.24653,-11.32307 -0.94261,-0.28476 -2.76763,-0.29578 -3.77552,-0.0228 -1.90805,0.51681 -1.45203,0.0961 -14.87788,13.72658 -6.90079,7.00598 -12.63768,12.73812 -12.74869,12.73812 -0.11104,0 -2.50658,-2.33001 -5.32351,-5.17777 -4.16498,-4.21055 -5.28125,-5.2623 -5.97573,-5.63033 -4.12016,-2.18343 -9.01606,-0.1394 -10.51438,4.38973 -0.18387,0.55575 -0.25956,1.20032 -0.25962,2.21077 -1e-4,1.6083 0.31171,2.78427 1.06306,4.00914 0.61921,1.0094 16.26711,16.8867 17.15245,17.40392 1.74934,1.0219 4.0669,1.34952 5.82623,0.82364 z M 1.9196561,184.63637 c -0.3836281,-0.3904 -0.1313073,-6.8532 0.3991512,-10.22353 1.8571789,-11.79996 8.9674077,-22.54229 18.9668597,-28.65564 6.014543,-3.6771 12.34933,-5.62739 19.381904,-5.96712 2.011591,-0.0972 5.340919,0.034 5.640184,0.2222 0.122987,0.0774 -0.164472,0.76765 -1.019157,2.44735 -2.90789,5.71474 -4.904129,11.85373 -5.892864,18.12214 -0.584015,3.70258 -0.672889,5.4346 -0.763718,14.88295 l -0.08913,9.27096 -18.227267,0.0362 c -14.0607971,0.0279 -18.2658281,-0.003 -18.3959753,-0.13549 z m 51.6062589,-0.0292 c -0.04148,-0.10992 -0.0505,-4.52254 -0.01993,-9.80582 0.06002,-10.39882 0.07606,-10.64815 0.949386,-14.74066 2.507472,-11.74993 9.919443,-22.31738 20.122737,-28.68959 2.057293,-1.28484 5.886335,-3.16103 8.115166,-3.97637 11.856069,-4.33716 25.253916,-3.26739 36.161226,2.88732 1.92027,1.08354 4.83554,3.05013 4.83554,3.26195 0,0.0956 -0.64649,0.57478 -1.43664,1.06497 -8.41005,5.21736 -15.61145,12.30028 -21.03105,20.68502 -5.370355,8.30859 -8.758366,17.38219 -10.186864,27.28207 -0.156872,1.08712 -0.319973,2.03383 -0.362461,2.10378 -0.04461,0.0734 -7.889877,0.1272 -18.574474,0.1272 -15.733521,0 -18.508493,-0.0298 -18.572594,-0.19986 z M 39.664179,124.59191 c -1.72914,-0.17734 -4.193729,-0.75487 -5.956799,-1.39589 -8.593282,-3.12437 -14.772186,-10.41472 -16.68666,-19.68824 -0.435635,-2.11019 -0.539327,-6.401169 -0.210315,-8.703397 2.31783,-16.218809 18.314693,-26.388906 33.43584,-21.257033 0.886512,0.300869 1.990275,0.732276 2.452796,0.958687 l 0.840957,0.411653 -0.04999,3.562122 c -0.05212,3.721459 0.07943,5.773588 0.552244,8.610871 1.263998,7.585321 4.465571,14.766757 9.247018,20.741997 0.804909,1.00588 1.582581,1.97979 1.728159,2.16426 0.262665,0.33284 0.261187,0.34169 -0.193979,1.16636 -1.328161,2.40636 -2.757132,4.26378 -4.880316,6.34354 -1.91724,1.87804 -3.665547,3.14266 -6.057838,4.38187 -4.454686,2.30755 -9.229294,3.21511 -14.221168,2.7032 z m 110.726281,0.0113 c -4.66119,-0.4927 -9.64729,-2.56529 -13.23805,-5.50271 -1.25145,-1.02373 -3.32573,-3.15978 -4.32316,-4.45193 -0.84483,-1.09443 -2.69188,-4.04475 -2.69188,-4.29978 0,-0.0591 0.5743,-0.80404 1.27624,-1.65562 5.47438,-6.64137 8.8098,-14.144374 10.10404,-22.728914 0.26927,-1.7861 0.31375,-2.680844 0.32611,-6.560992 l 0.0144,-4.492852 0.83226,-0.408018 c 1.21663,-0.596455 3.84781,-1.459253 5.46482,-1.79199 6.18364,-1.272425 12.80257,-0.06829 18.26874,3.323491 5.23772,3.250011 9.19135,8.315685 11.0953,14.216064 0.86277,2.673731 1.14081,4.381993 1.21798,7.482922 0.0971,3.902009 -0.3231,6.553969 -1.58578,10.008459 -4.02963,11.02421 -15.22898,18.08084 -26.76097,16.86187 z M 95.587952,109.6358 C 89.354457,109.18666 83.431788,106.71844 78.536876,102.52995 72.055433,96.983879 68.194104,88.472737 68.187851,79.718583 c -0.005,-7.881689 3.060317,-15.505714 8.474057,-21.072286 4.6275,-4.758137 10.517841,-7.765056 17.018695,-8.687747 2.056603,-0.291909 5.969495,-0.290971 8.033097,0.0022 11.19069,1.588344 20.3912,9.392947 23.99515,20.354639 1.05434,3.206845 1.58098,7.058327 1.43775,10.514473 -0.31621,7.629252 -3.26516,14.592815 -8.42779,19.901198 -6.1126,6.28515 -14.52785,9.5249 -23.130858,8.90502 z"
       id="path21"
       inkscape:connector-curvature="0" />
  </g>
</svg>
