<?xml version="1.0" encoding="UTF-8" standalone="no"?>
<!-- Created with Inkscape (http://www.inkscape.org/) -->

<svg
   xmlns:dc="http://purl.org/dc/elements/1.1/"
   xmlns:cc="http://creativecommons.org/ns#"
   xmlns:rdf="http://www.w3.org/1999/02/22-rdf-syntax-ns#"
   xmlns:svg="http://www.w3.org/2000/svg"
   xmlns="http://www.w3.org/2000/svg"
   xmlns:sodipodi="http://sodipodi.sourceforge.net/DTD/sodipodi-0.dtd"
   xmlns:inkscape="http://www.inkscape.org/namespaces/inkscape"
   width="210mm"
   height="297mm"
   viewBox="0 0 210 297"
   version="1.1"
   id="svg8"
   inkscape:version="0.92.3 (3ce5693, 2018-03-11)"
   sodipodi:docname="drawingNode.svg">
  <defs
     id="defs2" />
  <sodipodi:namedview
     id="base"
     pagecolor="#ffffff"
     bordercolor="#666666"
     borderopacity="1.0"
     inkscape:pageopacity="0.0"
     inkscape:pageshadow="2"
     inkscape:zoom="0.35"
     inkscape:cx="840.11844"
     inkscape:cy="813.32938"
     inkscape:document-units="mm"
     inkscape:current-layer="layer1"
     showgrid="false"
     inkscape:window-width="1855"
     inkscape:window-height="1056"
     inkscape:window-x="65"
     inkscape:window-y="24"
     inkscape:window-maximized="1" />
  <metadata
     id="metadata5">
    <rdf:RDF>
      <cc:Work
         rdf:about="">
        <dc:format>image/svg+xml</dc:format>
        <dc:type
           rdf:resource="http://purl.org/dc/dcmitype/StillImage" />
        <dc:title></dc:title>
      </cc:Work>
    </rdf:RDF>
  </metadata>
  <g
     inkscape:label="Layer 1"
     inkscape:groupmode="layer"
     id="layer1">
    <path
       style="fill:#060606;stroke-width:1.19586706"
       d="m 139.37262,280.12841 c -13.42898,-2.37934 -27.40331,-14.11917 -32.33007,-27.16055 -2.11326,-5.59401 -2.48572,-8.59856 -2.03128,-16.386 0.30609,-5.2448 0.96589,-10.78218 1.46627,-12.30533 0.79668,-2.42515 -1.11334,-4.77937 -15.365736,-18.93966 l -16.275468,-16.17034 -5.183001,1.0594 c -2.850655,0.58266 -9.772056,1.05953 -15.38089,1.05971 -8.756689,2.7e-4 -11.170995,-0.47444 -17.083748,-3.35916 -8.799148,-4.29295 -16.645281,-12.10341 -20.887726,-20.79278 -2.887387,-5.91392 -3.342262,-8.29171 -3.360755,-17.56766 -0.0181,-9.13688 0.450903,-11.73501 3.163291,-17.51814 4.057108,-8.65037 12.406334,-16.95307 21.136696,-21.01891 6.129527,-2.85457 8.071701,-3.15984 18.831869,-2.95977 6.598624,0.12255 13.419935,0.39106 15.158478,0.59599 2.647707,0.31221 5.829502,-2.21691 19.594914,-15.576584 13.796476,-13.389773 16.298206,-16.354959 15.588146,-18.475954 -0.46519,-1.389532 -1.09625,-6.817605 -1.40234,-12.062413 -0.45444,-7.787432 -0.0821,-10.791986 2.03128,-16.385983 3.17255,-8.397855 12.6153,-19.023199 20.38011,-22.93253 22.39407,-11.274581 49.19892,-2.026251 59.80358,20.633798 2.63898,5.638923 3.16584,8.450968 3.16584,16.896748 0,8.445738 -0.52686,11.257784 -3.16584,16.896697 -9.17522,19.605533 -30.39989,29.750311 -50.77724,24.270021 l -7.76652,-2.088692 -6.91134,6.000862 c -3.8012,3.30045 -11.19373,10.30764 -16.4278,15.57155 l -9.516527,9.57072 1.41821,6.10426 c 1.79447,7.72383 1.81274,17.61388 0.0453,24.58718 l -1.37277,5.4165 16.242727,16.13776 16.24275,16.1378 7.9062,-2.12631 c 20.19996,-5.43254 40.79714,4.02975 50.23558,23.07808 3.48516,7.03354 3.89635,8.94739 3.87314,18.02606 -0.0273,11.173 -2.91935,19.42776 -9.51834,27.18015 -9.68168,11.37384 -26.45792,17.27338 -41.52711,14.60348 z"
       id="path105"
       inkscape:connector-curvature="0" />
  </g>
</svg>
