<?xml version="1.0" encoding="UTF-8" standalone="no"?>
<!-- Created with Inkscape (http://www.inkscape.org/) -->

<svg
   xmlns:dc="http://purl.org/dc/elements/1.1/"
   xmlns:cc="http://creativecommons.org/ns#"
   xmlns:rdf="http://www.w3.org/1999/02/22-rdf-syntax-ns#"
   xmlns:svg="http://www.w3.org/2000/svg"
   xmlns="http://www.w3.org/2000/svg"
   xmlns:sodipodi="http://sodipodi.sourceforge.net/DTD/sodipodi-0.dtd"
   xmlns:inkscape="http://www.inkscape.org/namespaces/inkscape"
   width="210mm"
   height="297mm"
   viewBox="0 0 210 297"
   version="1.1"
   id="svg8"
   inkscape:version="0.92.3 (3ce5693, 2018-03-11)"
   sodipodi:docname="remove.svg">
  <defs
     id="defs2" />
  <sodipodi:namedview
     id="base"
     pagecolor="#ffffff"
     bordercolor="#666666"
     borderopacity="1.0"
     inkscape:pageopacity="0.0"
     inkscape:pageshadow="2"
     inkscape:zoom="0.7"
     inkscape:cx="166.00742"
     inkscape:cy="531.48681"
     inkscape:document-units="mm"
     inkscape:current-layer="layer1"
     showgrid="false"
     inkscape:window-width="1920"
     inkscape:window-height="1056"
     inkscape:window-x="1920"
     inkscape:window-y="24"
     inkscape:window-maximized="1" />
  <metadata
     id="metadata5">
    <rdf:RDF>
      <cc:Work
         rdf:about="">
        <dc:format>image/svg+xml</dc:format>
        <dc:type
           rdf:resource="http://purl.org/dc/dcmitype/StillImage" />
        <dc:title></dc:title>
      </cc:Work>
    </rdf:RDF>
  </metadata>
  <g
     inkscape:label="Layer 1"
     inkscape:groupmode="layer"
     id="layer1">
    <path
       style="fill:#000000;stroke-width:0.47890946"
       d="m 17.835431,265.48448 c -0.2467,-0.16686 -0.368339,-33.13233 -0.299554,-81.1802 l 0.115814,-80.89912 38.903685,-0.0259 c 51.664424,-0.0345 52.313964,-0.0462 51.473804,-0.9278 C 107.22677,101.60943 79.38114,85.781806 53.351542,71.372348 43.030623,65.658892 34.303727,60.684196 33.958433,60.317487 c -0.529095,-0.561942 0.50247,-3.096732 6.561251,-16.122386 3.953978,-8.500585 7.661568,-16.137889 8.239081,-16.971786 0.577515,-0.833897 2.15544,-2.174898 3.5065,-2.980001 1.977501,-1.178399 3.037962,-1.469023 5.438695,-1.490495 3.317133,-0.02967 4.444126,0.49742 18.667212,8.730568 3.850244,2.22875 7.192097,3.922604 7.426319,3.764118 0.234204,-0.158487 1.401492,-2.364126 2.59395,-4.901421 2.725765,-5.799839 5.75652,-9.26479 9.539477,-10.906167 2.346891,-1.018277 3.53838,-1.188063 8.453102,-1.204569 8.72474,-0.0293 8.35054,-0.192262 39.36136,17.141462 20.12226,11.247494 22.01656,12.554335 26.3722,18.193814 3.1116,4.028753 4.65387,7.243215 5.44989,11.358996 0.87896,4.544462 0.28704,8.028433 -2.33518,13.74492 -1.11401,2.428579 -2.02548,4.74206 -2.02548,5.141024 0,0.443871 4.85915,3.458385 12.51931,7.766707 15.9451,8.968059 17.39069,10.501919 17.43989,18.505109 0.0192,3.12702 -0.0905,3.41081 -7.35771,19.02507 -4.0575,8.7179 -7.6618,16.03638 -8.00959,16.2633 -0.42163,0.27509 -4.93325,-2.01517 -13.53946,-6.87312 -7.09892,-4.00712 -13.12328,-7.28568 -13.38744,-7.28568 -0.33291,0 -0.48033,20.52328 -0.48033,66.86893 0,41.60679 -0.16399,66.97986 -0.43402,67.16259 -0.55661,0.37664 -139.568196,0.61082 -140.122029,0.23606 z m 75.247784,-26.5494 c 2.926981,-1.20678 5.05586,-3.04694 5.972942,-5.1629 0.678985,-1.56659 0.750947,-6.08812 0.750947,-47.18236 0,-51.096 0.242486,-47.59331 -3.489582,-50.40466 -2.746627,-2.06901 -5.301664,-2.96381 -8.462988,-2.96381 -4.509815,0 -9.621619,2.75457 -11.161258,6.01436 -0.99851,2.11408 -1.039602,92.51167 -0.04308,94.6088 1.289416,2.71336 4.206918,4.79929 8.281899,5.92139 2.608222,0.71819 4.980491,0.47638 8.151045,-0.83082 z m -35.286134,-0.0189 c 1.330899,-0.57296 3.089405,-1.59937 3.907792,-2.2809 3.034987,-2.52747 2.860085,0.55495 2.860085,-50.40454 0,-52.84203 0.359176,-48.41459 -4.155065,-51.21809 -2.35614,-1.46323 -2.736298,-1.54105 -7.528257,-1.54105 -4.516377,0 -5.286053,0.13485 -7.323046,1.28247 -1.25193,0.70538 -2.739647,2.03536 -3.306039,2.95553 l -1.029805,1.67301 v 47.04985 47.04986 l 1.71634,1.99866 c 3.520258,4.09936 9.892933,5.57274 14.857995,3.4352 z m 71.572269,-0.59788 c 1.2813,-0.71647 2.98047,-2.11424 3.77594,-3.10617 l 1.4463,-1.80351 v -47.06968 -47.06968 l -1.44417,-1.80085 c -2.13104,-2.65739 -4.5494,-3.80995 -8.63794,-4.11677 -4.33242,-0.32513 -7.57385,0.4637 -10.08304,2.45379 -3.36162,2.66618 -3.17706,-0.28437 -3.17706,50.79287 0,50.697 -0.1884,47.49466 2.94817,50.114 4.24127,3.54189 10.52083,4.20662 15.1718,1.606 z M 155.7337,68.938676 c 1.25826,-2.695287 2.1787,-5.211651 2.04541,-5.591921 -0.26679,-0.761224 -2.06224,-1.814232 -32.41319,-19.009984 -11.49322,-6.511631 -21.30874,-11.839335 -21.81226,-11.839335 -0.69823,0 -1.47745,1.19777 -3.28304,5.046346 -1.302132,2.775491 -2.265245,5.338137 -2.140246,5.69479 0.125068,0.356653 5.753906,3.714449 12.508696,7.461782 6.75476,3.747329 18.87214,10.533226 26.9275,15.079751 8.05534,4.546527 14.92359,8.219763 15.26274,8.162755 0.33917,-0.057 1.64614,-2.308898 2.90439,-5.004184 z"
       id="path21"
       inkscape:connector-curvature="0" />
  </g>
</svg>
